<svg width="200" height="200" viewBox="0 0 200 200" fill="none" xmlns="http://www.w3.org/2000/svg">
<path d="M196.482 104.515C196.482 94.9655 192.821 86.2766 186.833 79.7582C185.798 78.631 185.451 77.0499 185.859 75.5746C186.534 73.1288 186.897 70.5531 186.897 67.8925C186.897 53.9819 177.045 42.3756 163.938 39.662C162.337 39.3303 161.062 38.0986 160.653 36.5148C157.445 24.0888 146.163 14.9091 132.735 14.9091C130.454 14.9091 128.236 15.1781 126.109 15.6812C124.511 16.059 122.841 15.5536 121.751 14.3253C115.044 6.76626 105.259 2 94.3583 2C78.8981 2 65.6835 11.5832 60.312 25.1311C59.4653 27.2663 57.42 28.651 55.1233 28.6483C55.1099 28.6483 55.0964 28.6483 55.083 28.6483C34.8573 28.6483 18.461 45.0447 18.461 65.2703C18.461 65.3976 18.4617 65.5244 18.4629 65.6512C18.5163 70.7641 16.5302 75.6453 13.0156 79.3589C6.67829 86.056 2.84168 95.1423 3.00501 105.129C3.31477 124.02 18.1923 139.749 37.0414 141.048C42.6589 141.435 48.0247 140.547 52.8882 138.652C55.1452 137.773 57.7121 138.249 59.4246 139.962C69.1689 149.709 82.631 155.739 97.5028 155.739C106.73 155.739 115.415 153.418 123.006 149.327C126.829 147.267 131.593 148.856 133.37 152.819L141.848 171.722C145.089 178.95 153.576 182.181 160.803 178.94C168.031 175.698 171.262 167.212 168.021 159.984L159.565 141.129C159.664 141.13 159.761 141.136 159.86 141.136C180.086 141.137 196.482 124.741 196.482 104.515Z" fill="url(#paint0_linear_566_5)"/>
<path d="M116.654 67.6773C110.479 72.4194 102.748 75.2437 94.3576 75.2437C74.1304 75.2437 57.7344 58.8477 57.7344 38.6205C57.7344 18.3979 74.1304 2.00195 94.3576 2.00195C106.24 2.00195 116.796 7.65944 123.487 16.4249C112.099 20.2791 103.901 31.0538 103.901 43.7423C103.901 53.7121 108.959 62.5002 116.654 67.6773Z" fill="url(#paint1_linear_566_5)"/>
<path d="M97.5028 155.74C127.242 155.74 151.35 131.632 151.35 101.893C151.35 72.1539 127.242 48.0458 97.5028 48.0458C67.7639 48.0458 43.6558 72.1539 43.6558 101.893C43.6558 131.632 67.7639 155.74 97.5028 155.74Z" fill="url(#paint2_linear_566_5)"/>
<path d="M167.845 172.095L86.9983 91.2484C85.4841 88.401 81.9492 88.1466 79.8897 91.4394L49.1607 139.653C50.7514 139.268 51.3863 139.237 52.8886 138.652C55.1456 137.772 57.7125 138.248 59.425 139.962C69.1692 149.709 82.6314 155.739 97.5032 155.739C106.731 155.739 115.416 153.417 123.007 149.327C126.83 147.267 131.594 148.855 133.371 152.818L141.848 171.722C145.09 178.949 153.576 182.181 160.804 178.939C164.01 177.502 166.428 175.03 167.845 172.095Z" fill="url(#paint3_linear_566_5)"/>
<path d="M159.565 141.129C159.664 141.13 159.761 141.137 159.86 141.137C168.881 141.137 177.135 137.868 183.518 132.46L124.241 73.1838C123.896 72.1615 122.891 71.5397 121.876 71.5427L121.877 71.5397H97.5027V84.2466L107.265 94.009L102.575 101.049C101.811 102.271 102.055 103.812 103.361 104.133L113.125 114.272L111.654 126.606C111.506 127.896 111.823 128.84 112.808 129.189L161.968 178.35C168.368 174.758 171.082 166.811 168.021 159.985L159.565 141.129Z" fill="url(#paint4_linear_566_5)"/>
<path d="M91.7027 65.2695C91.7027 78.0587 85.1479 89.3141 75.2153 95.8644C71.3291 79.8116 56.8693 67.8925 39.622 67.8925C34.6805 67.8925 29.9692 68.8702 25.6699 70.6434C22.291 72.0365 18.539 69.6438 18.4683 65.9897C18.4659 65.8764 18.4644 65.7634 18.4633 65.6496C18.2611 45.8321 34.1317 29.2674 53.9412 28.664C74.6849 28.0322 91.7027 44.6626 91.7027 65.2695Z" fill="url(#paint5_linear_566_5)"/>
<path d="M80.0011 93.4967C97.2552 93.4967 111.242 79.5095 111.242 62.2554C111.242 45.0013 97.2552 31.0142 80.0011 31.0142C62.7471 31.0142 48.7599 45.0013 48.7599 62.2554C48.7599 79.5095 62.7471 93.4967 80.0011 93.4967Z" fill="url(#paint6_linear_566_5)"/>
<path d="M159.86 141.137C180.086 141.137 196.482 124.74 196.482 104.514C196.482 84.2887 180.086 67.8925 159.86 67.8925C139.634 67.8925 123.238 84.2887 123.238 104.514C123.238 124.74 139.634 141.137 159.86 141.137Z" fill="url(#paint7_linear_566_5)"/>
<path d="M101.34 136.297H86.9726C84.6502 136.297 82.8458 134.274 83.1114 131.967L87.4825 93.9602C88.0452 89.0679 81.5853 86.8066 78.9738 90.9818L45.4671 144.552C43.848 147.141 45.7088 150.5 48.7622 150.5H63.1301C65.4525 150.5 67.2569 152.523 66.9913 154.831L62.6201 192.837C62.0575 197.73 68.5174 199.991 71.1288 195.816L104.636 142.245C106.255 139.657 104.394 136.297 101.34 136.297Z" fill="url(#paint8_linear_566_5)"/>
<path d="M101.34 136.297H86.9726C84.6501 136.297 82.8458 134.274 83.1114 131.967L87.4825 93.9602C87.7297 91.8108 86.6205 90.1705 85.0783 89.3596L66.7173 131.26C64.2093 136.984 68.4021 143.399 74.6511 143.399C80.7909 143.399 84.9818 149.61 82.6832 155.303L65.5763 197.68C67.4679 198.393 69.7972 197.945 71.1285 195.816L104.635 142.245C106.255 139.657 104.393 136.297 101.34 136.297Z" fill="url(#paint9_linear_566_5)"/>
<path d="M131.691 96.6792H124.086C122.857 96.6792 121.902 95.6081 122.042 94.3868L124.356 74.2703C124.654 71.6808 121.235 70.4836 119.852 72.6938L102.117 101.048C101.26 102.419 102.245 104.197 103.861 104.197H111.466C112.695 104.197 113.65 105.268 113.51 106.489L111.196 126.606C110.898 129.196 114.318 130.393 115.7 128.183L133.435 99.8279C134.292 98.4574 133.307 96.6792 131.691 96.6792Z" fill="url(#paint10_linear_566_5)"/>
<path d="M131.691 96.6793H124.086C122.857 96.6793 121.902 95.6082 122.042 94.3869L124.356 74.2703C124.487 73.1328 123.9 72.2646 123.083 71.8353L113.365 94.0133C112.038 97.0428 114.257 100.438 117.564 100.438C120.814 100.438 123.032 103.726 121.816 106.739L112.761 129.169C113.762 129.547 114.995 129.309 115.7 128.183L133.435 99.828C134.292 98.4575 133.307 96.6793 131.691 96.6793Z" fill="url(#paint11_linear_566_5)"/>
<path d="M118.958 90.4195C136.189 90.4195 150.157 80.3338 150.157 67.8925C150.157 55.4513 136.189 45.3656 118.958 45.3656C101.728 45.3656 87.7596 55.4513 87.7596 67.8925C87.7596 80.3338 101.728 90.4195 118.958 90.4195Z" fill="url(#paint12_linear_566_5)"/>
<defs>
<linearGradient id="paint0_linear_566_5" x1="69.9671" y1="47.7898" x2="137.253" y2="154.212" gradientUnits="userSpaceOnUse">
<stop stop-color="#FFE0EA"/>
<stop offset="1" stop-color="#FF80AB"/>
</linearGradient>
<linearGradient id="paint1_linear_566_5" x1="89.6601" y1="43.7599" x2="149.623" y2="-36.3433" gradientUnits="userSpaceOnUse">
<stop stop-color="#FF4181" stop-opacity="0"/>
<stop offset="1" stop-color="#FF4181"/>
</linearGradient>
<linearGradient id="paint2_linear_566_5" x1="83.0391" y1="121.579" x2="-15.8306" y2="256.152" gradientUnits="userSpaceOnUse">
<stop stop-color="#FF4181" stop-opacity="0"/>
<stop offset="1" stop-color="#FF4181"/>
</linearGradient>
<linearGradient id="paint3_linear_566_5" x1="124.508" y1="138.875" x2="67.7492" y2="114.921" gradientUnits="userSpaceOnUse">
<stop stop-color="#FF4181" stop-opacity="0"/>
<stop offset="1" stop-color="#FF4181"/>
</linearGradient>
<linearGradient id="paint4_linear_566_5" x1="142.585" y1="125.101" x2="82.2532" y2="71.3729" gradientUnits="userSpaceOnUse">
<stop stop-color="#FF4181" stop-opacity="0"/>
<stop offset="1" stop-color="#FF4181"/>
</linearGradient>
<linearGradient id="paint5_linear_566_5" x1="56.2083" y1="62.9387" x2="-58.5801" y2="72.5427" gradientUnits="userSpaceOnUse">
<stop stop-color="#FF4181" stop-opacity="0"/>
<stop offset="1" stop-color="#FF4181"/>
</linearGradient>
<linearGradient id="paint6_linear_566_5" x1="82.3773" y1="67.6973" x2="64.5075" y2="26.7702" gradientUnits="userSpaceOnUse">
<stop stop-color="#FFE0EA" stop-opacity="0"/>
<stop offset="1" stop-color="white"/>
</linearGradient>
<linearGradient id="paint7_linear_566_5" x1="160.129" y1="105.034" x2="189.424" y2="161.487" gradientUnits="userSpaceOnUse">
<stop stop-color="#FF4181" stop-opacity="0"/>
<stop offset="1" stop-color="#FF4181"/>
</linearGradient>
<linearGradient id="paint8_linear_566_5" x1="57.94" y1="126.288" x2="91.6447" y2="159.992" gradientUnits="userSpaceOnUse">
<stop stop-color="#FFF5D9"/>
<stop offset="1" stop-color="#FFCE47"/>
</linearGradient>
<linearGradient id="paint9_linear_566_5" x1="89.4425" y1="149.395" x2="28.2506" y2="123.923" gradientUnits="userSpaceOnUse">
<stop stop-color="#FFEBB4" stop-opacity="0"/>
<stop offset="1" stop-color="#FFCE47"/>
</linearGradient>
<linearGradient id="paint10_linear_566_5" x1="108.719" y1="91.3811" x2="126.559" y2="109.221" gradientUnits="userSpaceOnUse">
<stop stop-color="#FFF5D9"/>
<stop offset="1" stop-color="#FFCE47"/>
</linearGradient>
<linearGradient id="paint11_linear_566_5" x1="125.393" y1="103.612" x2="93.0048" y2="90.1298" gradientUnits="userSpaceOnUse">
<stop stop-color="#FFEBB4" stop-opacity="0"/>
<stop offset="1" stop-color="#FFCE47"/>
</linearGradient>
<linearGradient id="paint12_linear_566_5" x1="95.8867" y1="31.4019" x2="163.173" y2="137.824" gradientUnits="userSpaceOnUse">
<stop stop-color="#FFE0EA"/>
<stop offset="1" stop-color="#FF80AB"/>
</linearGradient>
</defs>
</svg>
