<svg width="200" height="200" viewBox="0 0 200 200" fill="none" xmlns="http://www.w3.org/2000/svg">
<path d="M166.72 33.2804L129.656 70.3443C122.065 62.7537 111.58 58.058 100 58.058V5.64429C126.054 5.64429 149.646 16.2027 166.72 33.2804Z" fill="url(#paint0_linear_41_336)"/>
<path d="M70.3444 70.3442C62.7538 77.9348 58.0581 88.4203 58.0581 99.9999H5.64441C5.64441 73.9458 16.2028 50.3536 33.2805 33.2803L70.3444 70.3442Z" fill="url(#paint1_linear_41_336)"/>
<path d="M100 5.64429V58.058C88.4205 58.058 77.935 62.7537 70.3444 70.3443L33.2805 33.2804C50.3538 16.2027 73.9459 5.64429 100 5.64429Z" fill="url(#paint2_linear_41_336)"/>
<path d="M194.356 99.9999H141.942C141.942 88.4203 137.246 77.9348 129.656 70.3442L166.72 33.2803C183.797 50.3536 194.356 73.9458 194.356 99.9999Z" fill="url(#paint3_linear_41_336)"/>
<path d="M194.356 99.9998C194.356 126.054 183.797 149.646 166.72 166.719L129.656 129.655C137.246 122.065 141.942 111.579 141.942 99.9998H194.356Z" fill="url(#paint4_linear_41_336)"/>
<path d="M70.3444 129.655L33.2805 166.719C16.2028 149.646 5.64441 126.054 5.64441 99.9998H58.0581C58.0581 111.579 62.7538 122.065 70.3444 129.655Z" fill="url(#paint5_linear_41_336)"/>
<path d="M166.72 166.719C149.646 183.797 126.054 194.356 100 194.356V141.942C111.58 141.942 122.065 137.246 129.656 129.656L166.72 166.719Z" fill="url(#paint6_linear_41_336)"/>
<path d="M100 141.942V194.356C73.9459 194.356 50.3538 183.797 33.2805 166.719L70.3444 129.656C77.935 137.246 88.4205 141.942 100 141.942Z" fill="url(#paint7_linear_41_336)"/>
<path d="M150.613 49.3869L129.656 70.3441C122.065 62.7536 111.58 58.0579 100 58.0579V28.4249C119.768 28.4249 137.657 36.4351 150.613 49.3869Z" fill="url(#paint8_linear_41_336)"/>
<path d="M70.3444 70.3441C62.7538 77.9347 58.0581 88.4202 58.0581 99.9998H28.4252C28.4252 80.2323 36.435 62.3433 49.3871 49.3868L70.3444 70.3441Z" fill="url(#paint9_linear_41_336)"/>
<path d="M100 28.4249V58.0579C88.4205 58.0579 77.935 62.7536 70.3444 70.3441L49.3871 49.3869C62.3436 36.4351 80.2326 28.4249 100 28.4249Z" fill="url(#paint10_linear_41_336)"/>
<path d="M171.575 99.9998H141.942C141.942 88.4202 137.246 77.9347 129.656 70.3441L150.613 49.3868C163.565 62.3433 171.575 80.2323 171.575 99.9998Z" fill="url(#paint11_linear_41_336)"/>
<path d="M171.575 99.9998C171.575 119.767 163.565 137.656 150.613 150.613L129.656 129.655C137.246 122.065 141.942 111.579 141.942 99.9998H171.575Z" fill="url(#paint12_linear_41_336)"/>
<path d="M70.3444 129.655L49.3871 150.613C36.4354 137.656 28.4252 119.767 28.4252 99.9998H58.0581C58.0581 111.579 62.7538 122.065 70.3444 129.655Z" fill="url(#paint13_linear_41_336)"/>
<path d="M150.613 150.613C137.657 163.565 119.768 171.575 100 171.575V141.942C111.58 141.942 122.065 137.246 129.656 129.656L150.613 150.613Z" fill="url(#paint14_linear_41_336)"/>
<path d="M100 141.942V171.575C80.2326 171.575 62.3436 163.565 49.3871 150.613L70.3444 129.656C77.935 137.246 88.4205 141.942 100 141.942Z" fill="url(#paint15_linear_41_336)"/>
<path d="M177.615 46.3395L139.115 84.8399C140.939 89.5422 141.942 94.6536 141.942 99.9995C141.942 111.579 137.246 122.065 129.656 129.655C122.065 137.246 111.58 141.941 100 141.941C94.6542 141.941 89.5424 140.939 84.8405 139.114L46.3401 177.615C61.5754 188.168 80.0652 194.355 100 194.355C126.055 194.355 149.647 183.797 166.72 166.719C183.798 149.646 194.356 126.054 194.356 99.9995C194.356 80.0646 188.169 61.5748 177.615 46.3395Z" fill="url(#paint16_linear_41_336)"/>
<path d="M20.3586 139.036L0.207185 195.406C-0.767717 198.134 1.86601 200.768 4.59346 199.793L60.964 179.641C72.2107 168.395 31.6048 127.789 20.3586 139.036Z" fill="url(#paint17_linear_41_336)"/>
<path d="M129.014 111.597L60.9633 179.641C59.8515 177.715 58.1621 176.01 55.9978 174.802C53.0409 173.165 48.4166 174.061 45.215 175.032C44.5182 175.239 43.8809 174.876 43.6217 174.321C43.4586 173.987 43.4291 173.579 43.6068 173.179C43.6142 173.179 43.6142 173.172 43.6142 173.172C43.7923 172.765 43.948 172.349 44.0813 171.934C44.1405 171.734 44.1997 171.534 44.2593 171.334C44.2668 171.319 44.2668 171.312 44.2668 171.297C44.4374 170.652 44.5558 170.008 44.6225 169.348C44.6448 169.133 44.6597 168.911 44.6742 168.696C44.6927 168.338 44.6962 167.98 44.6844 167.622C44.6033 165.116 43.7848 162.628 42.2284 160.514C41.8503 159.995 41.428 159.506 40.9613 159.039C40.4942 158.572 40.0052 158.15 39.4864 157.772C37.0703 155.994 34.1652 155.178 31.3048 155.326C31.0899 155.341 30.8676 155.356 30.6527 155.378C29.9931 155.445 29.3409 155.563 28.7037 155.734C28.6888 155.734 28.6813 155.734 28.6664 155.741C28.4664 155.801 28.266 155.86 28.066 155.919C27.8511 155.986 27.6437 156.06 27.4362 156.142C27.2362 156.216 27.0358 156.297 26.8358 156.386C26.8284 156.386 26.8284 156.386 26.8209 156.394C26.4205 156.572 26.0131 156.542 25.6797 156.379C25.124 156.12 24.7609 155.482 24.9684 154.786C25.9393 151.584 26.8358 146.967 25.1982 144.01C23.9899 141.839 22.2931 140.149 20.3589 139.038L88.4029 70.9869C91.4707 67.9261 96.4362 67.9261 99.497 70.9869L105.285 76.7747L123.226 94.7163L129.014 100.504C132.075 103.564 132.075 108.529 129.014 111.597Z" fill="url(#paint18_linear_41_336)"/>
<path d="M123.226 94.7155L43.6217 174.32C43.4586 173.987 43.4292 173.579 43.6068 173.179C43.6143 173.179 43.6143 173.172 43.6143 173.172C43.7923 172.764 44.5629 170 44.6221 169.348C44.6519 169.125 44.6664 168.91 44.6739 168.696C44.8221 165.835 44.0068 162.93 42.2284 160.514C41.8503 159.995 41.428 159.506 40.9613 159.039C40.4943 158.572 40.0052 158.15 39.4864 157.772C37.0703 155.993 34.1652 155.178 31.3048 155.326C31.0899 155.334 30.875 155.348 30.6527 155.378C30.0005 155.437 29.3484 155.556 28.7037 155.734C28.6888 155.734 28.6813 155.734 28.6664 155.741C28.4664 155.793 27.0362 156.297 26.8358 156.386C26.8284 156.386 26.8284 156.386 26.8209 156.393C26.4205 156.571 26.0131 156.541 25.6797 156.378L105.284 76.7736L123.226 94.7155Z" fill="url(#paint19_linear_41_336)"/>
<path d="M11.586 188.414C9.45265 186.281 7.06834 184.569 4.54637 183.268L0.207551 195.406C-0.767351 198.134 1.86637 200.768 4.59383 199.792L16.7315 195.454C15.4311 192.931 13.7193 190.547 11.586 188.414Z" fill="url(#paint20_linear_41_336)"/>
<path d="M193.653 6.34774L111.482 88.5183L99.4621 76.4983C96.8421 73.8783 96.8421 69.6301 99.4621 67.0101L106.651 59.8211C109.754 56.7179 111.497 52.5093 111.497 48.1211V39.1622C111.497 32.114 115.962 25.8395 122.621 23.5297L189.815 0.222246C193.535 -1.06834 196.437 3.56342 193.653 6.34774Z" fill="url(#paint21_linear_41_336)"/>
<path d="M193.653 6.34768L111.482 88.5182L123.502 100.538C126.122 103.158 130.37 103.158 132.99 100.538L140.179 93.3492C143.282 90.2461 147.491 88.503 151.879 88.503H160.838C167.886 88.503 174.16 84.0383 176.47 77.379L199.778 10.1845C201.068 6.46493 196.437 3.56336 193.653 6.34768Z" fill="url(#paint22_linear_41_336)"/>
<path d="M154.939 48.9199L196.212 7.64615C197.24 6.6187 197.362 4.94615 196.402 3.85439C195.351 2.65792 193.528 2.614 192.42 3.72184L151.177 44.9654C148.476 47.6658 144.734 49.1442 140.93 48.8081C137.411 48.4975 133.775 49.8297 131.266 52.8062C127.712 57.0238 127.768 63.3148 131.39 67.4748C135.739 72.4693 143.324 72.665 147.926 68.0622C150.337 65.6516 151.43 62.4238 151.208 59.2713C150.937 55.4301 152.216 51.6426 154.939 48.9199Z" fill="url(#paint23_linear_41_336)"/>
<path d="M110.8 52.8677C110.021 55.4696 108.606 57.8649 106.651 59.8206L99.4621 67.0096C96.8421 69.6296 96.8421 73.8779 99.4621 76.4979L111.482 88.5179L123.502 100.538C126.122 103.158 130.37 103.158 132.99 100.538L140.179 93.3488C142.135 91.3932 144.53 89.979 147.132 89.1998L110.8 52.8677Z" fill="url(#paint24_linear_41_336)"/>
<path d="M118.951 121.661L78.3397 81.0488L94.5244 64.8641C96.3989 62.9896 99.4378 62.9896 101.312 64.8641L135.136 98.688C137.01 100.563 137.01 103.601 135.136 105.476L118.951 121.661Z" fill="url(#paint25_linear_41_336)"/>
<defs>
<linearGradient id="paint0_linear_41_336" x1="89.7867" y1="2.09605" x2="152.167" y2="64.4764" gradientUnits="userSpaceOnUse">
<stop stop-color="#FFF5D9"/>
<stop offset="1" stop-color="#FFCE47"/>
</linearGradient>
<linearGradient id="paint1_linear_41_336" x1="17.6699" y1="64.8473" x2="45.5919" y2="92.7693" gradientUnits="userSpaceOnUse">
<stop stop-color="#6FA953"/>
<stop offset="1" stop-color="#43765A"/>
</linearGradient>
<linearGradient id="paint2_linear_41_336" x1="63.2067" y1="16.0286" x2="99.9008" y2="52.7231" gradientUnits="userSpaceOnUse">
<stop stop-color="#E4E08E"/>
<stop offset="1" stop-color="#6FA953"/>
</linearGradient>
<linearGradient id="paint3_linear_41_336" x1="130.13" y1="42.4395" x2="189.686" y2="101.996" gradientUnits="userSpaceOnUse">
<stop stop-color="#FFCE47"/>
<stop offset="1" stop-color="#FF9356"/>
</linearGradient>
<linearGradient id="paint4_linear_41_336" x1="143.361" y1="96.1825" x2="177.887" y2="130.709" gradientUnits="userSpaceOnUse">
<stop stop-color="#FF9356"/>
<stop offset="1" stop-color="#FF755C"/>
</linearGradient>
<linearGradient id="paint5_linear_41_336" x1="12.695" y1="100.385" x2="53.3213" y2="141.012" gradientUnits="userSpaceOnUse">
<stop stop-color="#7ACBFF"/>
<stop offset="1" stop-color="#45A2E0"/>
</linearGradient>
<linearGradient id="paint6_linear_41_336" x1="99.9338" y1="147.112" x2="134.016" y2="181.194" gradientUnits="userSpaceOnUse">
<stop stop-color="#FF755C"/>
<stop offset="1" stop-color="#FF4181"/>
</linearGradient>
<linearGradient id="paint7_linear_41_336" x1="41.7561" y1="129.446" x2="124.17" y2="211.86" gradientUnits="userSpaceOnUse">
<stop stop-color="#FF4181"/>
<stop offset="1" stop-color="#843561"/>
</linearGradient>
<linearGradient id="paint8_linear_41_336" x1="137.676" y1="66.0916" x2="99.2832" y2="27.699" gradientUnits="userSpaceOnUse">
<stop stop-color="#FFF5D9"/>
<stop offset="1" stop-color="#FFCE47"/>
</linearGradient>
<linearGradient id="paint9_linear_41_336" x1="61.8193" y1="97.6064" x2="14.235" y2="50.0221" gradientUnits="userSpaceOnUse">
<stop stop-color="#6FA953"/>
<stop offset="1" stop-color="#43765A"/>
</linearGradient>
<linearGradient id="paint10_linear_41_336" x1="95.0993" y1="59.3116" x2="52.7519" y2="16.9641" gradientUnits="userSpaceOnUse">
<stop stop-color="#E4E08E"/>
<stop offset="1" stop-color="#6FA953"/>
</linearGradient>
<linearGradient id="paint11_linear_41_336" x1="171.124" y1="99.5394" x2="126.419" y2="54.8343" gradientUnits="userSpaceOnUse">
<stop stop-color="#FFCE47"/>
<stop offset="1" stop-color="#FF9356"/>
</linearGradient>
<linearGradient id="paint12_linear_41_336" x1="168.042" y1="132.254" x2="138.175" y2="102.387" gradientUnits="userSpaceOnUse">
<stop stop-color="#FF9356"/>
<stop offset="1" stop-color="#FF755C"/>
</linearGradient>
<linearGradient id="paint13_linear_41_336" x1="73.5538" y1="145.137" x2="18.4111" y2="89.9947" gradientUnits="userSpaceOnUse">
<stop stop-color="#7ACBFF"/>
<stop offset="1" stop-color="#45A2E0"/>
</linearGradient>
<linearGradient id="paint14_linear_41_336" x1="133.85" y1="169.637" x2="93.6577" y2="129.445" gradientUnits="userSpaceOnUse">
<stop stop-color="#FF755C"/>
<stop offset="1" stop-color="#FF4181"/>
</linearGradient>
<linearGradient id="paint15_linear_41_336" x1="100.907" y1="172.491" x2="51.8562" y2="123.44" gradientUnits="userSpaceOnUse">
<stop stop-color="#FF4181"/>
<stop offset="1" stop-color="#843561"/>
</linearGradient>
<linearGradient id="paint16_linear_41_336" x1="140.511" y1="140.511" x2="112.005" y2="112.005" gradientUnits="userSpaceOnUse">
<stop stop-color="#843561" stop-opacity="0"/>
<stop offset="1" stop-color="#3A2F4D"/>
</linearGradient>
<linearGradient id="paint17_linear_41_336" x1="4.80153" y1="154.581" x2="45.4014" y2="195.181" gradientUnits="userSpaceOnUse">
<stop stop-color="#FFE0EA"/>
<stop offset="1" stop-color="#FFC0D5"/>
</linearGradient>
<linearGradient id="paint18_linear_41_336" x1="20.3589" y1="124.166" x2="131.31" y2="124.166" gradientUnits="userSpaceOnUse">
<stop stop-color="#FFCE47"/>
<stop offset="1" stop-color="#FF9356"/>
</linearGradient>
<linearGradient id="paint19_linear_41_336" x1="91.3013" y1="142.396" x2="50.3095" y2="101.404" gradientUnits="userSpaceOnUse">
<stop stop-color="#FFCE47"/>
<stop offset="1" stop-color="#FF9356"/>
</linearGradient>
<linearGradient id="paint20_linear_41_336" x1="5.1234" y1="192.408" x2="15.4828" y2="202.767" gradientUnits="userSpaceOnUse">
<stop stop-color="#2F73A0"/>
<stop offset="1" stop-color="#174461"/>
</linearGradient>
<linearGradient id="paint21_linear_41_336" x1="144.293" y1="35.1016" x2="149.639" y2="43.8848" gradientUnits="userSpaceOnUse">
<stop stop-color="#EDF5FF"/>
<stop offset="1" stop-color="#C7E9FF"/>
</linearGradient>
<linearGradient id="paint22_linear_41_336" x1="157.87" y1="52.0019" x2="165.126" y2="64.9855" gradientUnits="userSpaceOnUse">
<stop stop-color="#EDF5FF"/>
<stop offset="1" stop-color="#C7E9FF"/>
</linearGradient>
<linearGradient id="paint23_linear_41_336" x1="171.579" y1="43.3175" x2="159.12" y2="30.8582" gradientUnits="userSpaceOnUse">
<stop stop-color="#2F73A0"/>
<stop offset="1" stop-color="#174461"/>
</linearGradient>
<linearGradient id="paint24_linear_41_336" x1="124.373" y1="75.6204" x2="117.566" y2="82.427" gradientUnits="userSpaceOnUse">
<stop stop-color="#7ACBFF" stop-opacity="0"/>
<stop offset="1" stop-color="#2F73A0"/>
</linearGradient>
<linearGradient id="paint25_linear_41_336" x1="111.616" y1="85.5564" x2="101.02" y2="102.575" gradientUnits="userSpaceOnUse">
<stop stop-color="#2F73A0"/>
<stop offset="1" stop-color="#174461"/>
</linearGradient>
</defs>
</svg>
