<svg width="200" height="200" viewBox="0 0 200 200" fill="none" xmlns="http://www.w3.org/2000/svg">
<path d="M18.75 9.375H181.25V121.875H18.75V9.375Z" fill="#AF631E"/>
<path d="M40.625 28.125H159.375V103.125H40.625V28.125Z" fill="#BBEAEF"/>
<path d="M115.625 65.625C124.254 65.625 131.25 58.6294 131.25 50C131.25 41.3706 124.254 34.375 115.625 34.375C106.996 34.375 100 41.3706 100 50C100 58.6294 106.996 65.625 115.625 65.625Z" fill="#DD6B6B"/>
<path d="M40.625 84.375L75 62.5L112.5 90.625L140.625 65.625L159.375 81.25V103.125H40.625V84.375Z" fill="#0A4566"/>
<path d="M181.25 121.875L159.375 103.125V28.125L181.25 9.375V121.875Z" fill="#D68029"/>
<path d="M18.75 9.375L40.625 28.125V103.125L18.75 121.875V9.375Z" fill="#D68029"/>
<path d="M100 190.625C122.437 190.625 140.625 172.437 140.625 150C140.625 127.563 122.437 109.375 100 109.375C77.5634 109.375 59.375 127.563 59.375 150C59.375 172.437 77.5634 190.625 100 190.625Z" fill="#F4D75D"/>
<path d="M100 150V109.375C110.774 109.375 121.108 113.655 128.726 121.274C136.345 128.892 140.625 139.226 140.625 150H100Z" fill="#D8BE50"/>
<path d="M100 150V190.625C89.2256 190.625 78.8925 186.345 71.2738 178.726C63.6551 171.108 59.375 160.774 59.375 150H100Z" fill="#D8BE50"/>
<path d="M100 181.25C117.259 181.25 131.25 167.259 131.25 150C131.25 132.741 117.259 118.75 100 118.75C82.7411 118.75 68.75 132.741 68.75 150C68.75 167.259 82.7411 181.25 100 181.25Z" fill="#B79639"/>
<path d="M112.5 159.375L100 165.625L87.5 159.375V140.625L100 134.375L112.5 140.625V159.375Z" fill="#D8BE50"/>
<path d="M87.5 140.625L100 146.875L112.5 140.625L100 134.375L87.5 140.625Z" fill="#F6E597"/>
<path d="M100 165.625V146.875L112.5 140.625V159.375L100 165.625Z" fill="#F4D75D"/>
<path d="M181.25 6.25H18.75C17.9212 6.25 17.1263 6.57924 16.5403 7.16529C15.9542 7.75134 15.625 8.5462 15.625 9.375V121.875C15.625 122.704 15.9542 123.499 16.5403 124.085C17.1263 124.671 17.9212 125 18.75 125H59.375V118.75H27.1977L41.7809 106.25H158.219L172.802 118.75H140.625V125H181.25C182.079 125 182.874 124.671 183.46 124.085C184.046 123.499 184.375 122.704 184.375 121.875V9.375C184.375 8.5462 184.046 7.75134 183.46 7.16529C182.874 6.57924 182.079 6.25 181.25 6.25ZM37.5 29.5621V101.688L21.875 115.08V16.1695L37.5 29.5621ZM41.7809 25L27.1977 12.5H172.802L158.219 25H62.7781V31.25H156.25V74.5781L142.625 63.2242C142.051 62.7454 141.323 62.4887 140.575 62.5006C139.827 62.5126 139.108 62.7925 138.549 63.2895L112.332 86.593L76.875 60C76.3668 59.6189 75.7546 59.4017 75.1199 59.3774C74.4852 59.353 73.8581 59.5226 73.3223 59.8637L43.75 78.6824V31.25H55.682V25H41.7809ZM162.5 29.5621L178.125 16.1695V115.08L162.5 101.688V29.5621ZM43.75 100V86.0902L74.8543 66.2969L110.625 93.125C111.202 93.5573 111.91 93.7771 112.63 93.7471C113.35 93.7171 114.037 93.4393 114.576 92.9605L140.691 69.7477L156.25 82.7137V100H43.75Z" fill="black"/>
<path d="M96.875 50C96.875 53.7084 97.9747 57.3335 100.035 60.4169C102.095 63.5004 105.024 65.9036 108.45 67.3228C111.876 68.7419 115.646 69.1132 119.283 68.3897C122.92 67.6663 126.261 65.8805 128.883 63.2583C131.505 60.636 133.291 57.2951 134.015 53.6579C134.738 50.0208 134.367 46.2508 132.948 42.8247C131.529 39.3986 129.125 36.4702 126.042 34.4099C122.959 32.3497 119.333 31.25 115.625 31.25C110.654 31.2555 105.888 33.2327 102.373 36.7478C98.8577 40.2629 96.8805 45.0289 96.875 50ZM115.625 37.5C118.097 37.5 120.514 38.2331 122.57 39.6066C124.625 40.9802 126.227 42.9324 127.174 45.2165C128.12 47.5005 128.367 50.0139 127.885 52.4386C127.403 54.8634 126.212 57.0907 124.464 58.8388C122.716 60.587 120.488 61.7775 118.064 62.2598C115.639 62.7421 113.126 62.4946 110.841 61.5485C108.557 60.6024 106.605 59.0002 105.232 56.9446C103.858 54.889 103.125 52.4723 103.125 50C103.129 46.6859 104.447 43.5087 106.79 41.1653C109.134 38.8219 112.311 37.5037 115.625 37.5Z" fill="black"/>
<path d="M56.25 150C56.25 158.653 58.8159 167.112 63.6232 174.306C68.4305 181.501 75.2633 187.108 83.2576 190.42C91.2519 193.731 100.049 194.597 108.535 192.909C117.022 191.221 124.817 187.054 130.936 180.936C137.054 174.817 141.221 167.022 142.909 158.535C144.597 150.049 143.731 141.252 140.42 133.258C137.108 125.263 131.501 118.431 124.306 113.623C117.112 108.816 108.653 106.25 100 106.25C88.4008 106.263 77.2805 110.877 69.0786 119.079C60.8767 127.28 56.2631 138.401 56.25 150ZM100 112.5C107.417 112.5 114.667 114.699 120.834 118.82C127.001 122.94 131.807 128.797 134.645 135.649C137.484 142.502 138.226 150.042 136.779 157.316C135.333 164.59 131.761 171.272 126.517 176.517C121.272 181.761 114.59 185.333 107.316 186.779C100.042 188.226 92.5016 187.484 85.6494 184.645C78.7971 181.807 72.9404 177.001 68.8199 170.834C64.6993 164.667 62.5 157.417 62.5 150C62.5112 140.058 66.4656 130.526 73.4958 123.496C80.526 116.466 90.0578 112.511 100 112.5Z" fill="black"/>
<path d="M100 181.25C106.181 181.25 112.223 179.417 117.362 175.983C122.501 172.55 126.506 167.669 128.871 161.959C131.236 156.249 131.855 149.965 130.65 143.903C129.444 137.842 126.467 132.273 122.097 127.903C117.727 123.533 112.158 120.556 106.097 119.35C100.035 118.145 93.7513 118.764 88.0411 121.129C82.331 123.494 77.4504 127.499 74.0166 132.638C70.5828 137.777 68.75 143.819 68.75 150C68.7594 158.285 72.0548 166.228 77.9133 172.087C83.7718 177.945 91.7149 181.241 100 181.25ZM100 125C104.945 125 109.778 126.466 113.889 129.213C118 131.96 121.205 135.865 123.097 140.433C124.989 145.001 125.484 150.028 124.52 154.877C123.555 159.727 121.174 164.181 117.678 167.678C114.181 171.174 109.727 173.555 104.877 174.52C100.028 175.484 95.0011 174.989 90.4329 173.097C85.8648 171.205 81.9603 168.001 79.2133 163.889C76.4662 159.778 75 154.945 75 150C75.0074 143.372 77.6438 137.017 82.3306 132.331C87.0174 127.644 93.3719 125.007 100 125Z" fill="black"/>
<path d="M86.1023 162.17L98.6023 168.42C99.0363 168.637 99.5148 168.75 100 168.75C100.485 168.75 100.964 168.637 101.398 168.42L113.898 162.17C114.417 161.91 114.853 161.511 115.158 161.018C115.463 160.524 115.625 159.955 115.625 159.375V140.625C115.625 140.045 115.463 139.476 115.158 138.982C114.853 138.489 114.417 138.09 113.898 137.83L101.398 131.58C100.964 131.363 100.485 131.25 100 131.25C99.5148 131.25 99.0363 131.363 98.6023 131.58L86.1023 137.83C85.5833 138.09 85.1468 138.489 84.8417 138.982C84.5366 139.476 84.375 140.045 84.375 140.625V159.375C84.375 159.955 84.5366 160.524 84.8417 161.018C85.1468 161.511 85.5833 161.91 86.1023 162.17ZM90.625 145.681L96.875 148.806V160.569L90.625 157.444V145.681ZM103.125 160.569V148.806L109.375 145.681V157.444L103.125 160.569ZM100 137.869L105.512 140.625L100 143.381L94.4879 140.625L100 137.869Z" fill="black"/>
</svg>
