<svg width="200" height="200" viewBox="0 0 200 200" fill="none" xmlns="http://www.w3.org/2000/svg">
<g clip-path="url(#clip0_566_8)">
<path d="M53.8922 20.7136L78.4239 37.7352L100.046 42.0975L102.956 26.7904L100.046 11.4828L53.8922 20.7136Z" fill="#96E8FF"/>
<path d="M71.1317 71.8697L88.1547 61.4668L100.085 42.1158L53.8922 20.7136L58.91 48.0811L71.0307 71.8424L71.1317 71.8697Z" fill="#19CFFC"/>
<path d="M53.8922 20.7136L26 59.6326L52.0717 71.0704L71.0307 71.8424L53.8922 20.7136Z" fill="#96E8FF"/>
<path d="M26 59.6327L100.085 158.517L84.9538 101.236L71.0307 71.8424L26 59.6327Z" fill="#33B1FF"/>
<path d="M100.046 71.4945L105.178 59.6327L100.046 42.1558L71.1317 71.8698H71.132L89.2218 81.2543L100.046 71.4945Z" fill="#33B1FF"/>
<path d="M150.841 20.7183L100.046 11.4828V42.0975L100.085 42.1158L125.444 37.0234L150.841 20.7183Z" fill="#19CFFC"/>
<path d="M132.295 71.0704L146.208 50.1181L150.841 20.7183L100.085 42.1158L113.18 61.7048L132.295 71.0704Z" fill="#33B1FF"/>
<path d="M100.046 42.1556V71.4943L113.18 78.5383L132.293 71.0755L132.295 71.0703L100.085 42.1157L100.046 42.1556Z" fill="#4A98F7"/>
<path d="M132.301 71.0753L149.748 74.2704L174 59.8605L150.841 20.7183L132.295 71.0704L132.301 71.0753Z" fill="#19CFFC"/>
<path d="M71.1317 71.8698L71.0307 71.8424L100.046 158.401L105.178 103.176L100.046 71.4944C96.8208 71.536 74.0058 71.8325 71.1317 71.8698Z" fill="#19CFFC"/>
<path d="M100.046 158.401L100.085 158.517L127.633 100.46L132.293 71.0756L100.046 71.4943V158.401Z" fill="#33B1FF"/>
<path d="M132.301 71.0754H132.301L132.293 71.0757L100.085 158.517L174 59.8606L132.301 71.0754Z" fill="#4A98F7"/>
</g>
<g clip-path="url(#clip1_566_8)">
<path d="M156.105 141.741L147.034 148.472L142.853 155.693L147.986 158.59L153.825 159.4L156.105 141.741Z" fill="#96E8FF"/>
<path d="M135.683 141.725L137.351 149.086L142.841 155.705L156.105 141.741L145.689 140.226L135.705 141.692L135.683 141.725Z" fill="#19CFFC"/>
<path d="M156.105 141.741L145.534 127.032L138.278 134.991L135.705 141.693L156.105 141.741Z" fill="#96E8FF"/>
<path d="M145.534 127.032L101.123 141.61L123.485 143.123L135.705 141.693L145.534 127.032Z" fill="#33B1FF"/>
<path d="M132.317 152.134L135.947 155.409L142.832 155.686L135.683 141.725L135.683 141.725L130.13 147.072L132.317 152.134Z" fill="#33B1FF"/>
<path d="M144.364 176.487L153.825 159.401L142.852 155.693L142.841 155.705L141.596 165.41L144.364 176.487Z" fill="#19CFFC"/>
<path d="M128.564 163.743L134.388 171.266L144.364 176.487L142.841 155.705L134.235 158.026L128.564 163.743Z" fill="#33B1FF"/>
<path d="M142.832 155.686L132.317 152.134L128.202 155.988L128.562 163.741L128.564 163.743L142.841 155.705L142.832 155.686Z" fill="#4A98F7"/>
<path d="M128.561 163.744L125.304 169.611L127.531 180.047L144.364 176.487L128.564 163.743L128.561 163.744Z" fill="#19CFFC"/>
<path d="M135.683 141.725L135.705 141.692L101.17 141.61L120.341 150.137L132.317 152.134C132.692 150.973 135.349 142.76 135.683 141.725Z" fill="#19CFFC"/>
<path d="M101.17 141.61L101.123 141.61L118.595 158.513L128.562 163.741L132.317 152.134L101.17 141.61Z" fill="#33B1FF"/>
<path d="M128.561 163.744L128.561 163.744L128.562 163.742L101.123 141.61L127.531 180.047L128.561 163.744Z" fill="#4A98F7"/>
</g>
<g clip-path="url(#clip2_566_8)">
<path d="M40.8587 140.741L49.9297 147.472L54.1114 154.693L48.9777 157.59L43.1391 158.4L40.8587 140.741Z" fill="#96E8FF"/>
<path d="M61.2805 140.725L59.6134 148.086L54.1227 154.705L40.8588 140.741L51.2748 139.226L61.2585 140.692L61.2805 140.725Z" fill="#19CFFC"/>
<path d="M40.8588 140.741L51.4298 126.032L58.6861 133.991L61.2584 140.693L40.8588 140.741Z" fill="#96E8FF"/>
<path d="M51.4298 126.032L95.8407 140.61L73.4789 142.123L61.2584 140.693L51.4298 126.032Z" fill="#33B1FF"/>
<path d="M64.6471 151.134L61.0173 154.409L54.1322 154.686L61.2805 140.725L61.2805 140.725L66.8343 146.072L64.6471 151.134Z" fill="#33B1FF"/>
<path d="M52.5997 175.487L43.1391 158.401L54.1114 154.693L54.1227 154.705L55.3681 164.41L52.5997 175.487Z" fill="#19CFFC"/>
<path d="M68.4001 162.743L62.5755 170.266L52.5997 175.487L54.1227 154.705L62.7289 157.026L68.4001 162.743Z" fill="#33B1FF"/>
<path d="M54.1322 154.686L64.6471 151.134L68.762 154.988L68.4017 162.741L68.4 162.743L54.1226 154.705L54.1322 154.686Z" fill="#4A98F7"/>
<path d="M68.4026 162.744L71.6603 168.611L69.4325 179.047L52.5997 175.487L68.4001 162.743L68.4026 162.744Z" fill="#19CFFC"/>
<path d="M61.2805 140.725L61.2584 140.692L95.7943 140.61L76.6229 149.137L64.6471 151.134C64.2715 149.973 61.6151 141.76 61.2805 140.725Z" fill="#19CFFC"/>
<path d="M95.7943 140.61L95.8406 140.61L78.3686 157.513L68.4017 162.741L64.6471 151.134L95.7943 140.61Z" fill="#33B1FF"/>
<path d="M68.4026 162.744L68.4026 162.744L68.4017 162.742L95.8407 140.61L69.4325 179.047L68.4026 162.744Z" fill="#4A98F7"/>
</g>
<defs>
<clipPath id="clip0_566_8">
<rect width="148" height="148" fill="white" transform="translate(26 11)"/>
</clipPath>
<clipPath id="clip1_566_8">
<rect width="55.9884" height="55.9884" fill="white" transform="translate(162.964 132.921) rotate(108.668)"/>
</clipPath>
<clipPath id="clip2_566_8">
<rect width="55.9884" height="55.9884" fill="white" transform="matrix(0.320084 0.947389 0.947389 -0.320084 34 131.921)"/>
</clipPath>
</defs>
</svg>
