<svg width="200" height="200" viewBox="0 0 200 200" fill="none" xmlns="http://www.w3.org/2000/svg">
<path d="M190.625 15.6063C194.066 15.6063 196.856 12.8165 196.856 9.37505C196.856 5.93362 194.066 3.1438 190.625 3.1438C187.184 3.1438 184.394 5.93362 184.394 9.37505C184.394 12.8165 187.184 15.6063 190.625 15.6063Z" fill="#DCB2D4"/>
<path d="M133.219 14.1875C136.281 14.1875 138.75 16.6875 138.75 19.7188C138.75 22.7813 136.281 25.2813 133.219 25.2813C130.156 25.2813 127.688 22.7813 127.688 19.7188C127.688 16.6875 130.156 14.1875 133.219 14.1875Z" fill="#DCB2D4"/>
<path d="M100 14.1875C103.055 14.1875 105.531 11.7111 105.531 8.65625C105.531 5.60142 103.055 3.125 100 3.125C96.9452 3.125 94.4688 5.60142 94.4688 8.65625C94.4688 11.7111 96.9452 14.1875 100 14.1875Z" fill="#DCB2D4"/>
<path d="M66.7813 14.1875C69.8438 14.1875 72.3125 16.6875 72.3125 19.7188C72.3125 22.7813 69.8438 25.2813 66.7813 25.2813C63.7188 25.2813 61.25 22.7813 61.25 19.7188C61.25 16.6875 63.7188 14.1875 66.7813 14.1875Z" fill="#DCB2D4"/>
<path d="M196.875 131.25C196.875 175 193.75 196.875 175 196.875H165.625L131.25 164.281L125.625 157.562C123.25 154.75 119.75 153.125 116.062 153.125H83.9375C80.25 153.125 76.75 154.75 74.375 157.562L68.75 164.281L34.375 196.875H25C6.25 196.875 3.125 175 3.125 131.25C3.125 87.5 37.5 75 37.5 75H40.625H63.7188C64.1562 75 64.5625 75.0312 65 75.1562C68.7812 91 83 102.781 100 102.781C117 102.781 131.219 91 135 75.1562C135.438 75.0312 135.844 75 136.281 75H159.375H162.5C162.5 75 196.875 87.5 196.875 131.25Z" fill="#9D2888"/>
<path d="M196.875 131.25C196.875 175 193.75 196.875 175 196.875H165.625L131.25 164.281L125.625 157.562C123.25 154.75 119.75 153.125 116.062 153.125H83.9375C80.25 153.125 76.75 154.75 74.375 157.562L68.75 164.281L34.375 196.875H25C6.25 196.875 3.125 175 3.125 131.25C3.125 129.781 3.15625 128.375 3.25 126.969C3.9375 162.125 8.1875 179.688 25 179.688H34.375L68.75 147.094L74.375 140.375C76.75 137.562 80.25 135.937 83.9375 135.937H116.062C119.75 135.937 123.25 137.562 125.625 140.375L131.25 147.094L165.625 179.688H175C191.812 179.688 196.062 162.125 196.75 126.969C196.844 128.375 196.875 129.781 196.875 131.25Z" fill="#620774"/>
<path d="M159.375 68.75V75H136.281C135.844 75 135.437 75.0312 135 75.1562C135.625 72.4687 135.969 69.6563 135.969 66.7813C135.969 66.4063 135.969 66 135.937 65.625H156.25C157.969 65.625 159.375 67.0313 159.375 68.75Z" fill="#DCB2D4"/>
<path d="M135.938 65.625C135.969 66 135.969 66.4062 135.969 66.7812C135.969 69.6562 135.625 72.4687 135 75.1562C131.219 91 117 102.781 100 102.781C83 102.781 68.7812 91 65 75.1562C64.375 72.4687 64.0312 69.6562 64.0312 66.7812C64.0312 66.4062 64.0313 66 64.0625 65.625C64.6563 46.2812 80.5 30.8125 100 30.8125C119.5 30.8125 135.344 46.2812 135.938 65.625ZM124.469 66.7812C124.469 53.2812 113.5 42.3125 100 42.3125C86.5 42.3125 75.5313 53.2812 75.5313 66.7812C75.5313 80.3125 86.5 91.25 100 91.25C113.5 91.25 124.469 80.3125 124.469 66.7812Z" fill="#C47EB8"/>
<path d="M100 42.3125C113.5 42.3125 124.469 53.2813 124.469 66.7813C124.469 80.3125 113.5 91.25 100 91.25C86.5 91.25 75.5312 80.3125 75.5312 66.7813C75.5312 53.2813 86.5 42.3125 100 42.3125ZM109.375 66.7813L100 51.1563L90.625 66.7813L100 82.4375L109.375 66.7813Z" fill="#DCB2D4"/>
<path d="M100 51.1562L109.375 66.7812L100 82.4375L90.625 66.7812L100 51.1562Z" fill="#9D2888"/>
<path d="M65.625 121.875V128.125C65.625 129.844 64.2188 131.25 62.5 131.25H53.125C51.4062 131.25 50 132.656 50 134.375V143.75C50 145.469 48.5938 146.875 46.875 146.875H40.625C38.9062 146.875 37.5 145.469 37.5 143.75V134.375C37.5 132.656 36.0938 131.25 34.375 131.25H25C23.2812 131.25 21.875 129.844 21.875 128.125V121.875C21.875 120.156 23.2812 118.75 25 118.75H34.375C36.0938 118.75 37.5 117.344 37.5 115.625V106.25C37.5 104.531 38.9062 103.125 40.625 103.125H46.875C48.5938 103.125 50 104.531 50 106.25V115.625C50 117.344 51.4062 118.75 53.125 118.75H62.5C64.2188 118.75 65.625 120.156 65.625 121.875Z" fill="#DCB2D4"/>
<path d="M65 75.1562C64.5625 75.0312 64.1562 75 63.7187 75H40.625V68.75C40.625 67.0312 42.0312 65.625 43.75 65.625H64.0625C64.0312 66 64.0312 66.4063 64.0312 66.7813C64.0312 69.6563 64.375 72.4687 65 75.1562Z" fill="#DCB2D4"/>
<path d="M9.37499 15.6063C12.8164 15.6063 15.6062 12.8165 15.6062 9.37505C15.6062 5.93362 12.8164 3.1438 9.37499 3.1438C5.93356 3.1438 3.14374 5.93362 3.14374 9.37505C3.14374 12.8165 5.93356 15.6063 9.37499 15.6063Z" fill="#DCB2D4"/>
<path d="M156.25 115.625C159.702 115.625 162.5 112.827 162.5 109.375C162.5 105.923 159.702 103.125 156.25 103.125C152.798 103.125 150 105.923 150 109.375C150 112.827 152.798 115.625 156.25 115.625Z" fill="#DCB2D4"/>
<path d="M156.25 146.875C159.702 146.875 162.5 144.077 162.5 140.625C162.5 137.173 159.702 134.375 156.25 134.375C152.798 134.375 150 137.173 150 140.625C150 144.077 152.798 146.875 156.25 146.875Z" fill="#DCB2D4"/>
<path d="M140.625 131.25C144.077 131.25 146.875 128.452 146.875 125C146.875 121.548 144.077 118.75 140.625 118.75C137.173 118.75 134.375 121.548 134.375 125C134.375 128.452 137.173 131.25 140.625 131.25Z" fill="#DCB2D4"/>
<path d="M171.875 131.25C175.327 131.25 178.125 128.452 178.125 125C178.125 121.548 175.327 118.75 171.875 118.75C168.423 118.75 165.625 121.548 165.625 125C165.625 128.452 168.423 131.25 171.875 131.25Z" fill="#DCB2D4"/>
<path d="M34.775 86.2688L38.2313 83.0969C38.6938 82.6719 39.3 82.4375 39.9282 82.4375H49.8344C51.2188 82.4375 52.3438 83.5594 52.3438 84.9469V88.1187C52.3438 89.5031 51.2219 90.6281 49.8344 90.6281H36.4719C34.1844 90.625 33.0907 87.8156 34.775 86.2688Z" fill="#C47EB8"/>
<path d="M62.5 115.625H53.125V106.25C53.125 102.803 50.3219 100 46.875 100H40.625C37.1781 100 34.375 102.803 34.375 106.25V115.625H25C21.5531 115.625 18.75 118.428 18.75 121.875V128.125C18.75 131.572 21.5531 134.375 25 134.375H34.375V143.75C34.375 147.197 37.1781 150 40.625 150H46.875C50.3219 150 53.125 147.197 53.125 143.75V134.375H62.5C65.9469 134.375 68.75 131.572 68.75 128.125V121.875C68.75 118.428 65.9469 115.625 62.5 115.625ZM62.5 128.125H53.125C49.6781 128.125 46.875 130.928 46.875 134.375V143.75L40.625 143.753V134.375C40.625 130.928 37.8219 128.125 34.375 128.125H25V121.875H34.375C37.8219 121.875 40.625 119.072 40.625 115.625V106.25H46.875V115.625C46.875 119.072 49.6781 121.875 53.125 121.875H62.5V128.125Z" fill="#36103D"/>
<path d="M90.625 137.5H84.375C82.65 137.5 81.25 138.897 81.25 140.625C81.25 142.353 82.65 143.75 84.375 143.75H90.625C92.35 143.75 93.75 142.353 93.75 140.625C93.75 138.897 92.35 137.5 90.625 137.5Z" fill="#36103D"/>
<path d="M115.625 137.5H109.375C107.65 137.5 106.25 138.897 106.25 140.625C106.25 142.353 107.65 143.75 109.375 143.75H115.625C117.35 143.75 118.75 142.353 118.75 140.625C118.75 138.897 117.35 137.5 115.625 137.5Z" fill="#36103D"/>
<path d="M156.25 118.75C161.419 118.75 165.625 114.544 165.625 109.375C165.625 104.206 161.419 100 156.25 100C151.081 100 146.875 104.206 146.875 109.375C146.875 114.544 151.081 118.75 156.25 118.75ZM156.25 106.25C157.972 106.25 159.375 107.65 159.375 109.375C159.375 111.1 157.972 112.5 156.25 112.5C154.528 112.5 153.125 111.1 153.125 109.375C153.125 107.65 154.528 106.25 156.25 106.25Z" fill="#36103D"/>
<path d="M156.25 131.25C151.081 131.25 146.875 135.456 146.875 140.625C146.875 145.794 151.081 150 156.25 150C161.419 150 165.625 145.794 165.625 140.625C165.625 135.456 161.419 131.25 156.25 131.25ZM156.25 143.75C154.528 143.75 153.125 142.35 153.125 140.625C153.125 138.9 154.528 137.5 156.25 137.5C157.972 137.5 159.375 138.9 159.375 140.625C159.375 142.35 157.972 143.75 156.25 143.75Z" fill="#36103D"/>
<path d="M150 125C150 119.831 145.794 115.625 140.625 115.625C135.456 115.625 131.25 119.831 131.25 125C131.25 130.169 135.456 134.375 140.625 134.375C145.794 134.375 150 130.169 150 125ZM140.625 128.125C138.903 128.125 137.5 126.725 137.5 125C137.5 123.275 138.903 121.875 140.625 121.875C142.347 121.875 143.75 123.275 143.75 125C143.75 126.725 142.347 128.125 140.625 128.125Z" fill="#36103D"/>
<path d="M162.5 125C162.5 130.169 166.706 134.375 171.875 134.375C177.044 134.375 181.25 130.169 181.25 125C181.25 119.831 177.044 115.625 171.875 115.625C166.706 115.625 162.5 119.831 162.5 125ZM175 125C175 126.725 173.597 128.125 171.875 128.125C170.153 128.125 168.75 126.725 168.75 125C168.75 123.275 170.153 121.875 171.875 121.875C173.597 121.875 175 123.275 175 125Z" fill="#36103D"/>
<path d="M87.5 118.75H112.5C114.225 118.75 115.625 117.353 115.625 115.625C115.625 113.897 114.225 112.5 112.5 112.5H87.5C85.775 112.5 84.375 113.897 84.375 115.625C84.375 117.353 85.775 118.75 87.5 118.75Z" fill="#36103D"/>
<path d="M163.569 72.0656C163.225 71.9406 162.866 71.875 162.5 71.875V68.75C162.5 65.3031 159.697 62.5 156.25 62.5H141.919L163.794 40.625H178.125C179.85 40.625 181.25 39.2281 181.25 37.5V23.1688L186.606 17.8125C187.85 18.4062 189.206 18.75 190.625 18.75C193.128 18.75 195.484 17.775 197.253 16.0031C200.906 12.3469 200.909 6.40312 197.253 2.74688C193.712 -0.79375 187.538 -0.79375 183.997 2.74688C181.119 5.625 180.541 9.90625 182.194 13.3875L175.916 19.6656C175.328 20.25 175 21.0438 175 21.875V34.375H162.5C161.672 34.375 160.875 34.7031 160.291 35.2906L137.975 57.6063C136.512 51.5563 133.659 46.05 129.744 41.4594L135.428 35.7719C136.016 35.1844 136.344 34.3937 136.344 33.5625V27.7875C139.572 26.5281 141.875 23.4031 141.875 19.7344C141.875 14.9594 137.991 11.075 133.216 11.075C128.441 11.075 124.556 14.9594 124.556 19.7344C124.556 23.4062 126.863 26.5344 130.097 27.7906V32.2719L125.328 37.0438C119.244 31.8563 111.562 28.5125 103.128 27.8406V16.7156C106.359 15.4563 108.662 12.3312 108.662 8.65937C108.659 3.88437 104.775 0 100 0C95.225 0 91.3406 3.88437 91.3406 8.65937C91.3406 12.3312 93.6438 15.4563 96.875 16.7156V27.8375C88.4406 28.5094 80.7594 31.8531 74.675 37.0406L69.9062 32.2687V27.7875C73.1406 26.5312 75.4469 23.4031 75.4469 19.7313C75.4469 14.9563 71.5625 11.0719 66.7875 11.0719C62.0125 11.0719 58.125 14.9563 58.125 19.7313C58.125 23.4 60.4281 26.525 63.6563 27.7844V33.5625C63.6563 34.3937 63.9844 35.1875 64.5719 35.7719L70.2562 41.4594C66.3406 46.05 63.4875 51.5563 62.025 57.6063L39.7094 35.2906C39.125 34.7031 38.3281 34.375 37.5 34.375H25V21.875C25 21.0438 24.6719 20.25 24.0844 19.6656L17.8062 13.3875C19.4594 9.90625 18.8813 5.625 16.0063 2.74688C12.4625 -0.79375 6.2875 -0.79375 2.74688 2.74688C-0.90625 6.40312 -0.90625 12.3469 2.74688 16.0031C4.51562 17.775 6.87187 18.75 9.375 18.75C10.7937 18.75 12.15 18.4062 13.3937 17.8125L18.75 23.1688V37.5C18.75 39.2281 20.15 40.625 21.875 40.625H36.2063L58.0813 62.5H43.75C40.3031 62.5 37.5 65.3031 37.5 68.75V71.875C37.1344 71.875 36.775 71.9406 36.4313 72.0656C36.0687 72.1969 0 85.8375 0 131.25C0 171.506 1.79375 200 25 200H34.375C35.175 200 35.9437 199.691 36.525 199.144L70.9 166.55C70.9875 166.469 71.0687 166.378 71.1469 166.288L76.7625 159.581C78.5469 157.466 81.1625 156.25 83.9375 156.25H116.062C118.838 156.25 121.453 157.466 123.228 159.569L128.85 166.288C128.928 166.378 129.009 166.469 129.097 166.55L163.472 199.144C164.056 199.691 164.825 200 165.625 200H175C198.206 200 200 171.506 200 131.25C200 85.8375 163.931 72.1969 163.569 72.0656ZM188.416 7.16563C189.006 6.575 189.791 6.25 190.625 6.25C191.459 6.25 192.244 6.575 192.834 7.16563C194.053 8.38437 194.053 10.3656 192.834 11.5844C191.656 12.7688 189.597 12.7688 188.416 11.5844C187.197 10.3656 187.197 8.38437 188.416 7.16563ZM133.212 17.3219C134.541 17.3219 135.622 18.4031 135.622 19.7313C135.622 21.0594 134.541 22.1406 133.212 22.1406C131.884 22.1406 130.803 21.0594 130.803 19.7313C130.803 18.4031 131.884 17.3219 133.212 17.3219ZM66.7875 17.3219C68.1156 17.3219 69.1969 18.4031 69.1969 19.7313C69.1969 21.0594 68.1156 22.1406 66.7875 22.1406C65.4594 22.1406 64.375 21.0625 64.375 19.7313C64.375 18.4 65.4562 17.3219 66.7875 17.3219ZM7.16563 11.5844C5.94688 10.3656 5.94688 8.38437 7.16563 7.16563C7.75625 6.575 8.54062 6.25 9.375 6.25C10.2094 6.25 10.9937 6.575 11.5844 7.16563C12.8031 8.38437 12.8031 10.3656 11.5844 11.5844C10.4062 12.7688 8.34688 12.7688 7.16563 11.5844ZM156.25 71.875H138.738C138.872 70.8469 138.956 69.8031 139.009 68.75H156.25V71.875ZM100 6.25C101.328 6.25 102.409 7.33125 102.409 8.65937C102.409 9.9875 101.328 11.0719 100 11.0719C98.6719 11.0719 97.5906 9.99063 97.5906 8.6625C97.5906 7.33438 98.6719 6.25 100 6.25ZM100 33.9281C118.116 33.9281 132.856 48.6688 132.856 66.7844C132.856 84.9031 118.116 99.6437 100 99.6437C81.8844 99.6437 67.1438 84.9031 67.1438 66.7844C67.1438 48.6688 81.8844 33.9281 100 33.9281ZM43.75 68.75H60.9937C61.0469 69.8031 61.1312 70.8469 61.2656 71.875H43.75V68.75ZM175 193.75H166.872L133.531 162.141L128.012 155.547C125.037 152.019 120.681 150 116.062 150H83.9375C79.3187 150 74.9625 152.019 71.9781 155.556L66.4688 162.137L33.1281 193.75H25C10.6312 193.75 6.25 179.147 6.25 131.25C6.25 92.5906 33.9188 79.8281 38.0875 78.125H62.5844C67.4594 94.175 82.3812 105.894 100 105.894C117.619 105.894 132.544 94.175 137.416 78.125H161.909C166.1 79.8375 193.75 92.6062 193.75 131.25C193.75 179.147 189.369 193.75 175 193.75Z" fill="#36103D"/>
<path d="M97.3219 84.0406C97.8875 84.9812 98.9031 85.5562 100 85.5562C101.097 85.5562 102.116 84.9781 102.678 84.0406L112.066 68.3937C112.659 67.4062 112.659 66.1656 112.066 65.1781L102.678 49.5344C101.55 47.6531 98.4469 47.6531 97.3188 49.5344L87.9313 65.1781C87.3375 66.1656 87.3375 67.4062 87.9313 68.3937L97.3219 84.0406ZM100 57.2156L105.744 66.7844L100 76.3594L94.2563 66.7875L100 57.2156Z" fill="#36103D"/>
<path d="M100 94.3781C115.216 94.3781 127.594 82 127.594 66.7843C127.594 51.5719 115.216 39.1937 100 39.1937C84.7844 39.1937 72.4062 51.5719 72.4062 66.7843C72.4062 82 84.7844 94.3781 100 94.3781ZM100 45.4437C111.769 45.4437 121.344 55.0156 121.344 66.7843C121.344 78.5562 111.769 88.1281 100 88.1281C88.2312 88.1281 78.6562 78.5562 78.6562 66.7843C78.6562 55.0156 88.2312 45.4437 100 45.4437Z" fill="#36103D"/>
<path d="M156.25 90.625H161.206L166.541 95.9594C167.15 96.5688 167.95 96.875 168.75 96.875C169.55 96.875 170.35 96.5688 170.959 95.9594C172.181 94.7375 172.181 92.7625 170.959 91.5406L164.709 85.2906C164.125 84.7031 163.328 84.375 162.5 84.375H156.25C154.525 84.375 153.125 85.7719 153.125 87.5C153.125 89.2281 154.525 90.625 156.25 90.625Z" fill="#36103D"/>
</svg>
