<svg width="200" height="200" viewBox="0 0 200 200" fill="none" xmlns="http://www.w3.org/2000/svg">
<path d="M170.312 87.5H181.25C183.736 87.5 186.121 88.4877 187.879 90.2459C189.637 92.004 190.625 94.3886 190.625 96.875C190.625 99.3614 189.637 101.746 187.879 103.504C186.121 105.262 183.736 106.25 181.25 106.25H170.312V87.5Z" fill="#5B3719"/>
<path d="M28.125 56.25H43.4699V68.75H28.125V56.25Z" fill="#5B3719"/>
<path d="M171.875 68.75V100L137.5 68.75H40.625C37.3098 68.75 34.1304 67.433 31.7862 65.0888C29.442 62.7446 28.125 59.5652 28.125 56.25C28.125 52.9348 29.442 49.7554 31.7862 47.4112C34.1304 45.067 37.3098 43.75 40.625 43.75H146.875C153.505 43.75 159.864 46.3839 164.553 51.0723C169.241 55.7607 171.875 62.1196 171.875 68.75Z" fill="#7A4922"/>
<path d="M96.875 103.125C122.763 103.125 143.75 82.1384 143.75 56.25C143.75 30.3617 122.763 9.375 96.875 9.375C70.9867 9.375 50 30.3617 50 56.25C50 82.1384 70.9867 103.125 96.875 103.125Z" fill="#F9A40E"/>
<path d="M96.875 90.625C115.86 90.625 131.25 75.2348 131.25 56.25C131.25 37.2652 115.86 21.875 96.875 21.875C77.8902 21.875 62.5 37.2652 62.5 56.25C62.5 75.2348 77.8902 90.625 96.875 90.625Z" fill="#936108"/>
<path d="M109.207 56.25C110.549 54.9393 111.531 53.3051 112.059 51.5047C112.586 49.7043 112.642 47.7984 112.219 45.9705C111.796 44.1426 110.91 42.4543 109.646 41.0683C108.381 39.6822 106.781 38.645 105 38.0566V35.625C105 34.7962 104.671 34.0013 104.085 33.4153C103.499 32.8292 102.704 32.5 101.875 32.5C101.046 32.5 100.251 32.8292 99.6653 33.4153C99.0792 34.0013 98.75 34.7962 98.75 35.625V37.5H95V35.625C95 34.7962 94.6708 34.0013 94.0847 33.4153C93.4987 32.8292 92.7038 32.5 91.875 32.5C91.0462 32.5 90.2513 32.8292 89.6653 33.4153C89.0792 34.0013 88.75 34.7962 88.75 35.625V37.5H84.375C83.5462 37.5 82.7513 37.8292 82.1653 38.4153C81.5792 39.0013 81.25 39.7962 81.25 40.625C81.25 41.4538 81.5792 42.2487 82.1653 42.8347C82.7513 43.4208 83.5462 43.75 84.375 43.75H87.5V68.75H84.375C83.5462 68.75 82.7513 69.0792 82.1653 69.6653C81.5792 70.2513 81.25 71.0462 81.25 71.875C81.25 72.7038 81.5792 73.4987 82.1653 74.0847C82.7513 74.6708 83.5462 75 84.375 75H88.75V76.875C88.75 77.7038 89.0792 78.4987 89.6653 79.0847C90.2513 79.6708 91.0462 80 91.875 80C92.7038 80 93.4987 79.6708 94.0847 79.0847C94.6708 78.4987 95 77.7038 95 76.875V75H98.75V76.875C98.75 77.7038 99.0792 78.4987 99.6653 79.0847C100.251 79.6708 101.046 80 101.875 80C102.704 80 103.499 79.6708 104.085 79.0847C104.671 78.4987 105 77.7038 105 76.875V74.4434C106.781 73.855 108.381 72.8178 109.646 71.4318C110.91 70.0457 111.796 68.3574 112.219 66.5295C112.642 64.7016 112.586 62.7957 112.059 60.9953C111.531 59.1949 110.549 57.5607 109.207 56.25ZM101.562 53.125H93.75V43.75H101.562C102.806 43.75 103.998 44.2439 104.877 45.1229C105.756 46.002 106.25 47.1943 106.25 48.4375C106.25 49.6807 105.756 50.873 104.877 51.7521C103.998 52.6311 102.806 53.125 101.562 53.125ZM101.562 68.75H93.75V59.375H101.562C102.806 59.375 103.998 59.8689 104.877 60.7479C105.756 61.627 106.25 62.8193 106.25 64.0625C106.25 65.3057 105.756 66.498 104.877 67.3771C103.998 68.2561 102.806 68.75 101.562 68.75Z" fill="#F9A40E"/>
<path d="M140.625 190.625H59.375C51.087 190.625 43.1384 187.333 37.2779 181.472C31.4174 175.612 28.125 167.663 28.125 159.375V57.8125L28.6746 59.7355C29.4165 62.3326 30.9842 64.6172 33.1404 66.2437C35.2967 67.8703 37.9241 68.7501 40.625 68.75H140.625C148.913 68.75 156.862 72.0424 162.722 77.9029C168.583 83.7634 171.875 91.712 171.875 100V159.375C171.875 167.663 168.583 175.612 162.722 181.472C156.862 187.333 148.913 190.625 140.625 190.625Z" fill="url(#paint0_linear_41_211)"/>
<path d="M109.375 156.25C109.376 158.462 108.594 160.603 107.169 162.294C105.743 163.986 103.765 165.119 101.585 165.493C99.4051 165.867 97.1629 165.458 95.2551 164.338C93.3473 163.219 91.8968 161.461 91.1602 159.375H62.5C61.6712 159.375 60.8763 159.046 60.2903 158.46C59.7042 157.874 59.375 157.079 59.375 156.25V143.75H28.125V137.5H62.5C63.3288 137.5 64.1237 137.829 64.7097 138.415C65.2958 139.001 65.625 139.796 65.625 140.625V153.125H91.1602C91.8968 151.039 93.3473 149.281 95.2551 148.162C97.1629 147.042 99.4051 146.633 101.585 147.007C103.765 147.381 105.743 148.514 107.169 150.206C108.594 151.897 109.376 154.038 109.375 156.25Z" fill="#A3612D"/>
<path d="M109.375 128.125C109.376 130.337 108.594 132.478 107.169 134.169C105.743 135.861 103.765 136.994 101.585 137.368C99.4051 137.742 97.1629 137.333 95.2551 136.213C93.3473 135.094 91.8968 133.336 91.1602 131.25H28.125V125H91.1602C91.8968 122.914 93.3473 121.156 95.2551 120.037C97.1629 118.917 99.4051 118.508 101.585 118.882C103.765 119.256 105.743 120.389 107.169 122.08C108.594 123.772 109.376 125.913 109.375 128.125Z" fill="#A3612D"/>
<path d="M109.375 96.875C109.376 99.087 108.594 101.228 107.169 102.919C105.743 104.611 103.765 105.744 101.585 106.118C99.4051 106.492 97.1629 106.083 95.2551 104.963C93.3473 103.844 91.8968 102.086 91.1602 100H65.625V115.625C65.625 116.454 65.2958 117.249 64.7097 117.835C64.1237 118.421 63.3288 118.75 62.5 118.75H28.125V112.5H59.375V96.875C59.375 96.0461 59.7042 95.2513 60.2903 94.6652C60.8763 94.0792 61.6712 93.7499 62.5 93.7499H91.1602C91.8968 91.6642 93.3473 89.9061 95.2551 88.7865C97.1629 87.667 99.4051 87.2581 101.585 87.6321C103.765 88.0061 105.743 89.139 107.169 90.8305C108.594 92.5219 109.376 94.6629 109.375 96.875Z" fill="#A3612D"/>
<path d="M190.625 96.875V128.125C190.625 132.269 188.979 136.243 186.049 139.174C183.118 142.104 179.144 143.75 175 143.75H146.875C141.902 143.75 137.133 141.775 133.617 138.258C130.1 134.742 128.125 129.973 128.125 125C128.125 120.027 130.1 115.258 133.617 111.742C137.133 108.225 141.902 106.25 146.875 106.25H181.25C183.736 106.25 186.121 105.262 187.879 103.504C189.637 101.746 190.625 99.3614 190.625 96.875Z" fill="#7A4922"/>
<path d="M146.875 132.812C151.19 132.812 154.688 129.315 154.688 125C154.688 120.685 151.19 117.188 146.875 117.188C142.56 117.188 139.062 120.685 139.062 125C139.062 129.315 142.56 132.812 146.875 132.812Z" fill="#F9A40E"/>
<path d="M109.375 96.875C109.376 99.087 108.594 101.228 107.169 102.919C105.743 104.611 103.765 105.744 101.585 106.118C99.4051 106.492 97.1629 106.083 95.2551 104.963C93.3473 103.844 91.8968 102.086 91.1602 100H65.625V115.625C65.625 116.454 65.2958 117.249 64.7097 117.835C64.1237 118.421 63.3288 118.75 62.5 118.75H28.125V112.5H59.375V96.875C59.375 96.0461 59.7042 95.2513 60.2903 94.6652C60.8763 94.0792 61.6712 93.7499 62.5 93.7499H91.1602C91.8968 91.6642 93.3473 89.9061 95.2551 88.7865C97.1629 87.667 99.4051 87.2581 101.585 87.6321C103.765 88.0061 105.743 89.139 107.169 90.8305C108.594 92.5219 109.376 94.6629 109.375 96.875Z" fill="#7A4922"/>
<path d="M109.375 128.125C109.376 130.337 108.594 132.478 107.169 134.169C105.743 135.861 103.765 136.994 101.585 137.368C99.4051 137.742 97.1629 137.333 95.2551 136.213C93.3473 135.094 91.8968 133.336 91.1602 131.25H28.125V125H91.1602C91.8968 122.914 93.3473 121.156 95.2551 120.037C97.1629 118.917 99.4051 118.508 101.585 118.882C103.765 119.256 105.743 120.389 107.169 122.08C108.594 123.772 109.376 125.913 109.375 128.125Z" fill="#7A4922"/>
<path d="M109.375 156.25C109.376 158.462 108.594 160.603 107.169 162.294C105.743 163.986 103.765 165.119 101.585 165.493C99.4051 165.867 97.1629 165.458 95.2551 164.338C93.3473 163.219 91.8968 161.461 91.1602 159.375H62.5C61.6712 159.375 60.8763 159.046 60.2903 158.46C59.7042 157.874 59.375 157.079 59.375 156.25V143.75H28.125V137.5H62.5C63.3288 137.5 64.1237 137.829 64.7097 138.415C65.2958 139.001 65.625 139.796 65.625 140.625V153.125H91.1602C91.8968 151.039 93.3473 149.281 95.2551 148.162C97.1629 147.042 99.4051 146.633 101.585 147.007C103.765 147.381 105.743 148.514 107.169 150.206C108.594 151.897 109.376 154.038 109.375 156.25Z" fill="#7A4922"/>
<defs>
<linearGradient id="paint0_linear_41_211" x1="100" y1="57.8125" x2="100" y2="190.625" gradientUnits="userSpaceOnUse">
<stop stop-color="#FFB001"/>
<stop offset="1" stop-color="#A12887"/>
</linearGradient>
</defs>
</svg>
