<svg width="200" height="200" viewBox="0 0 200 200" fill="none" xmlns="http://www.w3.org/2000/svg">
<path d="M164.781 76.7009C152.572 70.4843 135.656 66.1731 117.114 64.5506C117.005 64.5259 116.892 64.5091 116.777 64.5C97.2737 62.9047 77.9134 64.0837 60.7892 67.9111C44.3809 71.5777 31.0348 77.5685 23.2087 84.7798C17.7626 89.8005 15 95.257 15 101C15 102.375 16.1141 103.49 17.4902 103.49C18.8663 103.49 19.9805 102.375 19.9805 101C19.9805 96.7057 22.2022 92.4814 26.5848 88.4426C33.7753 81.8162 46.3095 76.2508 61.8761 72.771C78.4232 69.0732 97.1466 67.9215 116.048 69.4377C116.15 69.4597 116.254 69.4753 116.36 69.4844C134.405 71.0317 150.799 75.1717 162.52 81.1405C173.806 86.8862 180.02 93.9392 180.02 101C180.02 102.375 181.134 103.49 182.51 103.49C183.886 103.49 185 102.375 185 101C185 91.8394 178.008 83.4375 164.781 76.7009Z" fill="#3B7191"/>
<path d="M160.098 80.2467L159.903 153.959C159.902 154.689 159.482 155.352 158.823 155.662L146.036 161.684L102.686 182.425L100.808 183.326C100.555 183.449 100.278 183.51 100.001 183.51C99.7237 183.51 99.4462 183.449 99.1933 183.326L97.3152 182.425L40.9724 155.469C40.3187 155.156 39.9023 154.493 39.9023 153.766V80.2467C39.9023 79.8692 40.0152 79.5113 40.2162 79.2091C40.4004 78.9263 40.6585 78.6955 40.9724 78.545L86.9198 56.5622L99.0052 50.8775C99.511 50.6362 100.093 50.6362 100.601 50.8775L159.046 78.5541C159.356 78.7045 159.6 78.9315 159.782 79.2091C159.985 79.5113 160.098 79.8692 160.098 80.2467Z" fill="#FF50B5"/>
<path d="M159.784 79.2091L151.758 83.0482L92.9897 53.7063L99.0039 50.8762C99.5097 50.6376 100.096 50.6376 100.602 50.8775L159.046 78.5541C159.356 78.7046 159.6 78.9316 159.784 79.2091Z" fill="#C43F9A"/>
<path d="M100 107.918V183.51C99.7224 183.51 99.4462 183.449 99.192 183.326L97.3139 182.425L40.9724 155.469C40.3187 155.156 39.9023 154.493 39.9023 153.766V80.2467C39.9023 79.8693 40.0152 79.5113 40.2162 79.2091L100 107.918Z" fill="#80DEEA"/>
<path d="M159.901 80.4452V153.956C159.901 154.688 159.479 155.352 158.82 155.663L146.036 161.684L102.686 182.425L100.808 183.327C100.554 183.449 100.278 183.511 100 183.511V107.918L145.811 85.9976L159.587 79.4076C159.788 79.7098 159.901 80.0678 159.901 80.4452Z" fill="#FFCA28"/>
<path d="M160.098 80.2467L159.904 153.959C159.902 154.688 159.482 155.352 158.824 155.662L151.758 158.989V83.0482L159.784 79.2091C159.985 79.5113 160.098 79.8693 160.098 80.2467Z" fill="#FFB300"/>
<path d="M132.207 34.3733L132.103 73.9939C132.102 74.3856 131.876 74.7423 131.524 74.9083L124.671 78.1456L101.44 89.2946L100.433 89.7784C100.297 89.8445 100.149 89.877 100 89.877C99.8521 89.877 99.703 89.8445 99.5681 89.7784L98.5616 89.2946L68.3675 74.8046C68.0173 74.6372 67.7943 74.2806 67.7943 73.8902V34.3733C67.7943 34.1696 67.8539 33.9777 67.9629 33.8156C68.0602 33.6638 68.1989 33.5393 68.3675 33.4576L92.991 21.6432L99.4669 18.5875C99.7393 18.4578 100.051 18.4578 100.323 18.5875L131.644 33.4641C131.81 33.5445 131.941 33.6664 132.04 33.8156C132.146 33.9777 132.207 34.1709 132.207 34.3733Z" fill="#FF50B5"/>
<path d="M132.038 33.8156L124.656 37.3577L92.9897 21.6433L99.4656 18.5863C99.738 18.4579 100.052 18.4579 100.323 18.5875L131.643 33.4628C131.81 33.5445 131.94 33.6664 132.038 33.8156Z" fill="#C43F9A"/>
<path d="M100 49.2472V89.877C99.8521 89.877 99.703 89.8445 99.5668 89.7784L98.5603 89.2933L68.3662 74.8046C68.0161 74.6359 67.793 74.2806 67.793 73.8889V34.3733C67.793 34.1696 67.8539 33.9777 67.9616 33.8156L100 49.2472Z" fill="#80DEEA"/>
<path d="M132.102 34.4796V73.9913C132.102 74.3856 131.876 74.7423 131.522 74.9096L124.671 78.1456L101.44 89.2946L100.433 89.7784C100.297 89.8445 100.149 89.8782 100 89.8782V49.2472L124.551 37.464L131.933 33.9219C132.041 34.084 132.102 34.2773 132.102 34.4796Z" fill="#FFCA28"/>
<path d="M132.207 34.3733L132.103 73.9926C132.102 74.3856 131.878 74.741 131.525 74.9083L124.671 78.1456L124.656 37.3577L132.038 33.8156C132.146 33.9777 132.207 34.1709 132.207 34.3733Z" fill="#FFB300"/>
<path d="M160.104 40.8959C144.05 24.8416 122.704 16 100 16C77.2961 16 55.9501 24.8416 39.8959 40.8959C23.8416 56.9501 15 78.2961 15 101C15 123.704 23.8416 145.05 39.8959 161.104C55.9501 177.158 77.2961 186 100 186C122.704 186 144.05 177.158 160.104 161.104C176.158 145.05 185 123.704 185 101C185 78.2961 176.158 56.9501 160.104 40.8959ZM43.4172 44.4172C58.5311 29.3033 78.6255 20.9805 100 20.9805C121.375 20.9805 141.469 29.3033 156.583 44.4172C171.697 59.5311 180.02 79.6255 180.02 101C180.02 109.083 171.767 117.188 157.378 123.24C142.093 129.668 121.716 133.207 100 133.207C78.2844 133.207 57.9073 129.668 42.6221 123.24C28.2333 117.188 19.9805 109.083 19.9805 101C19.9805 79.6255 28.3033 59.5311 43.4172 44.4172ZM156.583 157.583C141.469 172.697 121.375 181.02 100 181.02C78.6255 181.02 58.5311 172.697 43.4172 157.583C31.7209 145.886 24.0919 131.207 21.2399 115.259C25.5939 119.97 32.1541 124.24 40.6922 127.83C56.5739 134.509 77.6372 138.188 100 138.188C122.363 138.188 143.426 134.509 159.308 127.83C167.846 124.24 174.406 119.97 178.76 115.259C175.908 131.207 168.279 145.886 156.583 157.583Z" fill="#4380A0"/>
</svg>
