<svg width="200" height="200" viewBox="0 0 200 200" fill="none" xmlns="http://www.w3.org/2000/svg">
<path d="M190.625 96.875H190.163C187.338 80.8719 169.606 0 100 0C30.3937 0 12.6625 80.8719 9.8375 96.875H9.375C4.20625 96.875 0 101.081 0 106.25V146.875C0 152.044 4.20625 156.25 9.375 156.25H11.2063L19.1281 164.172C22.0781 167.122 26.0031 168.75 30.1781 168.75H40.625C45.7938 168.75 50 164.544 50 159.375V153.125H59.375C60.2062 153.125 61 152.797 61.5844 152.209L66.7812 147.012C68.0281 149.031 69.45 150.922 71.0312 152.675L57.1656 166.541C56.5781 167.125 56.25 167.919 56.25 168.75V181.825C52.6219 183.119 50 186.556 50 190.625C50 195.794 54.2062 200 59.375 200C64.5437 200 68.75 195.794 68.75 190.625C68.75 186.556 66.1281 183.119 62.5 181.825V170.044L75.5563 156.988C78.0156 158.966 80.725 160.634 83.6188 161.978L79.0406 166.538C78.4531 167.122 78.125 167.919 78.125 168.75V178.7C74.4969 179.994 71.875 183.431 71.875 187.5C71.875 192.669 76.0813 196.875 81.25 196.875C86.4187 196.875 90.625 192.669 90.625 187.5C90.625 183.431 88.0031 179.994 84.375 178.7V170.047L90.1312 164.312C93.2906 165.141 96.5844 165.625 100 165.625C103.416 165.625 106.709 165.141 109.869 164.312L115.625 170.047V178.7C111.997 179.994 109.375 183.431 109.375 187.5C109.375 192.669 113.581 196.875 118.75 196.875C123.919 196.875 128.125 192.669 128.125 187.5C128.125 183.431 125.503 179.994 121.875 178.7V168.75C121.875 167.919 121.547 167.122 120.956 166.538L116.378 161.978C119.272 160.634 121.984 158.966 124.441 156.988L137.5 170.044V181.825C133.872 183.119 131.25 186.556 131.25 190.625C131.25 195.794 135.456 200 140.625 200C145.794 200 150 195.794 150 190.625C150 186.556 147.378 183.119 143.75 181.825V168.75C143.75 167.919 143.422 167.125 142.834 166.541L128.969 152.675C130.55 150.922 131.972 149.031 133.219 147.012L138.416 152.209C139 152.797 139.794 153.125 140.625 153.125H150V159.375C150 164.544 154.206 168.75 159.375 168.75H169.822C173.997 168.75 177.922 167.122 180.872 164.172L188.794 156.25H190.625C195.794 156.25 200 152.044 200 146.875V106.25C200 101.081 195.794 96.875 190.625 96.875ZM100 159.375C81.9062 159.375 67.1875 144.656 67.1875 126.562C67.1875 108.469 81.9062 93.75 100 93.75C118.094 93.75 132.812 108.469 132.812 126.562C132.812 144.656 118.094 159.375 100 159.375ZM159.375 96.875C154.206 96.875 150 101.081 150 106.25V146.875H141.919L136.206 141.163C138.031 136.647 139.062 131.725 139.062 126.562C139.062 105.022 121.541 87.5 100 87.5C78.4594 87.5 60.9375 105.022 60.9375 126.562C60.9375 131.725 61.9688 136.647 63.7937 141.163L58.0813 146.875H50V106.25C50 101.081 45.7938 96.875 40.625 96.875H31.7469C34.3656 81.3063 48.1188 18.75 100 18.75C151.881 18.75 165.634 81.3063 168.253 96.875H159.375ZM193.75 146.875C193.75 148.6 192.35 150 190.625 150H187.5C186.669 150 185.875 150.328 185.291 150.916L176.453 159.753C174.681 161.525 172.328 162.5 169.822 162.5H168.75V103.125H171.875C172.762 103.125 173.613 102.747 174.203 102.084C174.794 101.422 175.078 100.537 174.981 99.6562C174.884 98.7812 164.55 12.5 100 12.5C35.45 12.5 25.1156 98.7812 25.0187 99.6562C24.9219 100.537 25.2063 101.422 25.7969 102.084C26.3875 102.747 27.2375 103.125 28.125 103.125H31.25V162.5H30.1781C27.6719 162.5 25.3156 161.525 23.5469 159.753L14.7094 150.916C14.125 150.328 13.3313 150 12.5 150H9.375C7.65 150 6.25 148.6 6.25 146.875V106.25C6.25 104.525 7.65 103.125 9.375 103.125H12.5C14.0719 103.125 15.3969 101.959 15.6 100.4C15.7219 99.4594 28.6469 6.25 100 6.25C171.353 6.25 184.278 99.4594 184.4 100.4C184.603 101.959 185.928 103.125 187.5 103.125H190.625C192.35 103.125 193.75 104.525 193.75 106.25V146.875Z" fill="url(#paint0_linear_41_204)"/>
<path d="M102.678 109.328C101.55 107.447 98.4469 107.447 97.3188 109.328L87.9438 124.953C87.35 125.941 87.35 127.181 87.9438 128.169L97.3188 143.794C97.8844 144.734 98.9 145.312 100 145.312C101.1 145.312 102.116 144.734 102.678 143.797L112.053 128.172C112.647 127.184 112.647 125.944 112.053 124.956L102.678 109.328Z" fill="url(#paint1_linear_41_204)"/>
<path d="M100 99C84.8031 99 72.4375 111.366 72.4375 126.562C72.4375 141.759 84.8031 154.125 100 154.125C115.197 154.125 127.562 141.759 127.562 126.562C127.562 111.366 115.197 99 100 99ZM100 147.875C88.2469 147.875 78.6875 138.312 78.6875 126.562C78.6875 114.812 88.25 105.25 100 105.25C111.75 105.25 121.312 114.812 121.312 126.562C121.312 138.312 111.753 147.875 100 147.875Z" fill="url(#paint2_linear_41_204)"/>
<path d="M184.375 109.375C182.647 109.375 181.25 110.772 181.25 112.5V137.5C181.25 139.228 182.647 140.625 184.375 140.625C186.103 140.625 187.5 139.228 187.5 137.5V112.5C187.5 110.772 186.103 109.375 184.375 109.375Z" fill="url(#paint3_linear_41_204)"/>
<path d="M15.625 109.375C13.8969 109.375 12.5 110.772 12.5 112.5V137.5C12.5 139.228 13.8969 140.625 15.625 140.625C17.3531 140.625 18.75 139.228 18.75 137.5V112.5C18.75 110.772 17.3531 109.375 15.625 109.375Z" fill="url(#paint4_linear_41_204)"/>
<defs>
<linearGradient id="paint0_linear_41_204" x1="100" y1="4.75625" x2="100" y2="196.581" gradientUnits="userSpaceOnUse">
<stop stop-color="#FFB000"/>
<stop offset="0.5" stop-color="#E61E71"/>
<stop offset="1" stop-color="#9D2888"/>
</linearGradient>
<linearGradient id="paint1_linear_41_204" x1="100" y1="4.75616" x2="100" y2="196.581" gradientUnits="userSpaceOnUse">
<stop stop-color="#FFB000"/>
<stop offset="0.5" stop-color="#E61E71"/>
<stop offset="1" stop-color="#9D2888"/>
</linearGradient>
<linearGradient id="paint2_linear_41_204" x1="100" y1="4.75625" x2="100" y2="196.581" gradientUnits="userSpaceOnUse">
<stop stop-color="#FFB000"/>
<stop offset="0.5" stop-color="#E61E71"/>
<stop offset="1" stop-color="#9D2888"/>
</linearGradient>
<linearGradient id="paint3_linear_41_204" x1="184.375" y1="4.75624" x2="184.375" y2="196.581" gradientUnits="userSpaceOnUse">
<stop stop-color="#FFB000"/>
<stop offset="0.5" stop-color="#E61E71"/>
<stop offset="1" stop-color="#9D2888"/>
</linearGradient>
<linearGradient id="paint4_linear_41_204" x1="15.625" y1="4.75624" x2="15.625" y2="196.581" gradientUnits="userSpaceOnUse">
<stop stop-color="#FFB000"/>
<stop offset="0.5" stop-color="#E61E71"/>
<stop offset="1" stop-color="#9D2888"/>
</linearGradient>
</defs>
</svg>
